# xmcd
# 
# Track frame offsets:
#     150
#     18732
#     42047
#     68460
# 
# Disc length: 1209
# 
# Revision: 0
# Processed by: cddbd v1.5.2PL0 Copyright (c) Steve Scherf et al.
# Submitted via: fre:ac v1.0.17
# 
DISCID=2804b704
DTITLE=Living Colour - Love Rears Its Ugly Head
DYEAR=1990
DGENRE=Rock
TTITLE0=Love Rears Its Ugly Head (Soul Power Mix)
TTITLE1=Love Rears Its Ugly Head (Hip Hop Version)
TTITLE2=Love Rears Its Ugly Head (Soul Power Extended Mix)
TTITLE3=Type (Dance Mix)
EXTD=
EXTT0=
EXTT1=
EXTT2=
EXTT3=
PLAYORDER=
